<?xml version="1.0" encoding="utf-8"?>
<!-- Generator: Adobe Illustrator 16.0.1, SVG Export Plug-In . SVG Version: 6.00 Build 0)  -->
<!DOCTYPE svg PUBLIC "-//W3C//DTD SVG 1.1//EN" "http://www.w3.org/Graphics/SVG/1.1/DTD/svg11.dtd">
<svg version="1.1" id="Ebene_1" xmlns="http://www.w3.org/2000/svg" xmlns:xlink="http://www.w3.org/1999/xlink" x="0px" y="0px"
	 width="300px" height="300px" viewBox="0 0 300 300" enable-background="new 0 0 300 300" xml:space="preserve">
<g>
	<path fill="#B2B2B2" d="M149.923,9L16,56.13l21.163,175.462l112.902,62.054l113.486-62.895l21.154-175.455L149.923,9z M149.923,9"
		/>
	<path fill="#B52E31" d="M271.348,65.437L149.61,23.924V278.82l102.022-56.462L271.348,65.437z M271.348,65.437"/>
	<path fill="#E23237" d="M31.028,66.186l18.134,156.923l100.447,55.713V23.918L31.028,66.186z M31.028,66.186"/>
	<path fill="#F2F2F2" d="M177.828,150.705l-27.996-58.464l-24.646,58.464H177.828z M188.502,175.288h-74.21l-16.603,41.526
		l-30.881,0.57l82.804-184.206l85.689,184.206H206.68L188.502,175.288z M188.502,175.288"/>
	<path fill="#B2B2B2" d="M149.61,33.179l0.221,59.063l27.967,58.509h-28.125l-0.063,24.5l38.89,0.038l18.178,42.104l29.549,0.549
		L149.61,33.179z M149.61,33.179"/>
</g>
</svg>
